<?xml version="1.0" standalone="no"?>
<!DOCTYPE svg PUBLIC "-//W3C//DTD SVG 20010904//EN"
 "http://www.w3.org/TR/2001/REC-SVG-20010904/DTD/svg10.dtd">
<svg version="1.0" xmlns="http://www.w3.org/2000/svg"
 width="700.000000pt" height="700.000000pt" viewBox="0 0 700.000000 700.000000"
 preserveAspectRatio="xMidYMid meet">
<metadata>
Created by potrace 1.11, written by Peter Selinger 2001-2013
</metadata>
<g transform="translate(0.000000,700.000000) scale(0.100000,-0.100000)"
fill="#000000" stroke="none">
<path d="M0 3500 l0 -3500 1023 0 1022 0 -1 660 c0 363 3 657 6 653 8 -10 33
-88 240 -733 45 -140 104 -323 131 -405 27 -83 49 -156 49 -163 0 -9 231 -12
1027 -10 l1026 3 0 670 c0 369 2 666 4 660 9 -28 322 -1004 371 -1157 l57
-178 1022 0 1023 0 0 2334 c0 1858 -3 2335 -12 2338 -40 15 -2015 671 -2022
672 -6 1 -10 -262 -10 -666 0 -367 -1 -666 -2 -665 -1 1 -31 106 -68 232 -37
127 -133 459 -215 740 l-148 510 -1018 339 c-647 216 -1019 335 -1023 328 -4
-5 -7 -305 -6 -666 0 -361 0 -655 -1 -654 -3 4 -60 198 -175 598 -50 173 -95
326 -99 340 -5 14 -42 140 -82 280 -40 140 -74 256 -75 258 -1 3 -2035 682
-2041 682 -2 0 -3 -1575 -3 -3500z"/>
</g>
</svg>
