<svg width="43.197mm" height="53.057mm" version="1.1" viewBox="0 0 43.197 53.057" xmlns="http://www.w3.org/2000/svg">
 <g transform="translate(-91.606 -62.545)">
  <g transform="matrix(.26458 0 0 .26458 91.606 9.0789)" color-interpolation="auto" color-rendering="auto" image-rendering="auto" shape-rendering="auto" stroke="#000" stroke-linecap="square" stroke-miterlimit="10">
   <path d="m62.438 297.42-14.625-58.922q-5.2031-20.812-5.2031-22.219 0-6.0468 3.2344-10.125 3.2343-4.0781 6.6093-4.0781 6.8907 0 17.016 11.812t24.187 46.125q5.625-4.3594 11.109-10.125l15.609-16.031q16.312-17.578 20.18-21.375 3.8672-3.7969 8.9297-3.7969 5.625 0 9.7031 5.6953t4.0781 9.9141v1.125q-1.6875 0.5625-3.0937 0.5625-6.1875 0.8437-7.5938 6.3281-0.8437 2.3906-1.9687 3.5156-3.7969 2.9531-9.5625 11.953l-11.953 18.844q-9 14.906-14.484 22.5-4.2188 5.625-6.1172 9.2812-1.8984 3.6563-1.8984 8.2969 0 10.406 6.0468 27 6.0469 16.594 15.469 30.797 6.0468 8.7188 6.0468 9.8438l-0.8437 1.6874q-1.125 1.9688-1.125 3.5157 0 0.4219 0.5625 2.5312-7.875 4.3594-8.5078 4.9219t-0.6328 3.5156l0.2812 1.4063q0 1.125-1.2656 1.125-0.5625 0-3.7266-1.5469-3.164-1.5469-7.1015-6.1875-3.6563-4.9219-7.3125-5.4844-2.1094-1.125-2.5313-1.6875-4.6406-5.625-8.5781-7.1718-1.9688-0.9844-3.2344-3.5157l-15.328-26.156q-12.656 10.828-29.953 29.953-18 20.391-29.953 31.359v-4.0782q-1.125-2.25-3.0937-5.2031-1.125-1.5469-1.6875-3.6562-0.7031-2.6719-2.9531-3.2344-0.9844 0-1.9688-1.9687-0.8437-2.6719-2.6719-3.5157-2.25-0.8437-2.25-1.9687 0-0.2813 0.5626-2.6719-0.8438-1.6875-0.8438-2.5313 0-3.6562 36-44.297 15.75-18.141 26.438-32.062z" stroke="none"/>
  </g>
 </g>
</svg>
