<svg width="58.043mm" height="58.973mm" version="1.1" viewBox="0 0 58.043 58.973" xmlns="http://www.w3.org/2000/svg">
 <g transform="translate(-53.377 -58.871)">
  <g transform="matrix(.26458 0 0 .26458 50.773 15.078)" color-interpolation="auto" color-rendering="auto" image-rendering="auto" shape-rendering="auto" stroke="#000" stroke-linecap="square" stroke-miterlimit="10">
   <path d="m79.172 320.77q10.266-21.516 24.469-47.25 14.203-25.734 32.133-51.328 17.93-25.594 26.156-33.961 8.2265-8.3672 13.922-13.289 5.6953-4.9219 20.18-7.1719 14.484-2.25 21.938-2.25 4.9218 0 8.0859 3.0235 3.1641 3.0234 3.1641 7.9453 0 3.7968-1.8282 6.539-1.8281 2.7422-7.5937 8.2266-27.703 25.453-57.656 72.562-29.953 47.109-47.531 91.266-8.2969 20.25-10.688 23.766-2.3907 3.5156-7.3125 6.539-4.9219 3.0234-20.25 3.0234-12.094 0-15.469-1.4765-3.375-1.4766-5.2031-3.1641t-10.406-14.625q-8.8593-13.641-25.734-32.203-9.7031-10.688-9.7031-17.859 0-10.406 11.039-18.141 11.039-7.7344 19.477-7.7344 9.2812 0 19.828 7.5235 10.547 7.5234 18.984 20.039z" stroke="none"/>
  </g>
 </g>
</svg>
