<svg width="397.04mm" height="120.26mm" version="1.1" viewBox="0 0 397.04 120.26" xmlns="http://www.w3.org/2000/svg">
 <g transform="translate(113.07 -88.674)">
  <g transform="translate(-163.35 -16.511)">
   <path d="m135.27 133.52 35 11.666v40h-35v-51.667z" fill="#c03a2b"/>
   <path d="m170.27 145.18-35 11.666v68.334h35v-40z" fill="#e57e25"/>
   <path d="m92.771 225.18v-82.51l-7.4998-25.824v85.01z" fill="#80352d"/>
   <path d="m92.771 119.35 35 11.667v54.167h-35v-65.834z" fill="#c03a2b"/>
   <path d="m127.77 159.35-35 11.667v14.167h5.2e-4v25.834h-5.2e-4v14.167h35v-25.834h5.3e-4v-14.167h-5.3e-4z" fill="#e57e25"/>
   <path d="m50.271 105.18 35 11.666v68.334h-35v-80z" fill="#c03a2b"/>
   <path d="m85.271 173.52-35 11.666v40h35v-40z" fill="#e57e25"/>
   <path d="m135.27 225.18v-68.334l-7.5003-25.833v70.843z" fill="#80352d"/>
  </g>
  <g transform="translate(-163.35 -16.511)">
   <path d="m135.27 133.52 35 11.666v40h-35v-51.667z" fill="#c03a2b"/>
   <path d="m170.27 145.18-35 11.666v68.334h35v-40z" fill="#e57e25"/>
   <path d="m92.771 225.18v-82.51l-7.4998-25.824v85.01z" fill="#80352d"/>
   <path d="m92.771 119.35 35 11.667v54.167h-35v-65.834z" fill="#c03a2b"/>
   <path d="m127.77 159.35-35 11.667v14.167h5.2e-4v25.834h-5.2e-4v14.167h35v-25.834h5.3e-4v-14.167h-5.3e-4z" fill="#e57e25"/>
   <path d="m50.271 105.18 35 11.666v68.334h-35v-80z" fill="#c03a2b"/>
   <path d="m85.271 173.52-35 11.666v40h35v-40z" fill="#e57e25"/>
   <path d="m135.27 225.18v-68.334l-7.5003-25.833v70.843z" fill="#80352d"/>
  </g>
  <g transform="translate(-163.35 -16.511)">
   <path d="m135.27 133.52 35 11.666v40h-35v-51.667z" fill="#c03a2b"/>
   <path d="m170.27 145.18-35 11.666v68.334h35v-40z" fill="#e57e25"/>
   <path d="m92.771 225.18v-82.51l-7.4998-25.824v85.01z" fill="#80352d"/>
   <path d="m92.771 119.35 35 11.667v54.167h-35v-65.834z" fill="#c03a2b"/>
   <path d="m127.77 159.35-35 11.667v14.167h5.2e-4v25.834h-5.2e-4v14.167h35v-25.834h5.3e-4v-14.167h-5.3e-4z" fill="#e57e25"/>
   <path d="m50.271 105.18 35 11.666v68.334h-35v-80z" fill="#c03a2b"/>
   <path d="m85.271 173.52-35 11.666v40h35v-40z" fill="#e57e25"/>
   <path d="m135.27 225.18v-68.334l-7.5003-25.833v70.843z" fill="#80352d"/>
  </g>
  <g fill="#c03a2b">
   <path d="m71.492 128.38c-1.2083 0-2.0139 0.70485-2.1145 1.9132l-4.1284 47.124h-0.50346l-9.8679-47.225c-0.30208-1.2083-1.0069-1.8125-2.2152-1.8125h-6.0416c-1.2083 0-1.9132 0.60416-2.2152 1.8125l-9.9686 47.225h-0.50346l-3.927-47.124c-0.10069-1.2083-0.90624-1.9132-2.1145-1.9132h-9.5658c-1.309 0-2.0139 0.80554-1.9132 2.1146l8.2568 76.527c0.10069 1.309 0.80554 1.9132 2.1145 1.9132h10.069c1.2083 0 1.9132-0.60416 2.2152-1.7118l10.573-45.614 10.472 45.513c0.30208 1.2083 1.0069 1.8125 2.2152 1.8125h9.8679c1.309 0 2.0139-0.60416 2.1145-1.9132l8.6596-76.527c0.10069-1.309-0.60416-2.1146-1.9132-2.1146z"/>
   <path d="m90.162 194.43c0 9.4651 5.0346 14.5 14.5 14.5h11.278c9.4651 0 14.5-5.0346 14.5-14.5v-51.555c0-9.4651-5.0346-14.5-14.5-14.5h-11.278c-9.4651 0-14.5 5.0346-14.5 14.5zm17.42 1.5104c-2.618 0-4.0277-1.309-4.0277-4.0277v-46.52c0-2.618 1.4097-4.0277 4.0277-4.0277h5.8402c2.618 0 4.0277 1.4097 4.0277 4.0277v46.52c0 2.7187-1.4097 4.0277-4.0277 4.0277z"/>
   <path d="m181.89 142.88c0-9.4651-5.0346-14.5-14.5-14.5h-25.274c-1.0069 0-1.6111 0.60416-1.6111 1.6111v77.332c0 1.0069 0.60415 1.6111 1.6111 1.6111h10.472c1.0069 0 1.6111-0.60416 1.6111-1.6111v-25.375h6.9478l6.7464 25.576c0.20139 0.90624 0.70485 1.4097 1.7118 1.4097h10.472c1.1076 0 1.7118-0.60416 1.4097-1.8125l-6.9478-26.382c4.8332-2.1146 7.3506-6.545 7.3506-13.291zm-27.691 25.777v-26.986h9.9686c2.618 0 4.0277 1.4097 4.0277 4.0277v18.93c0 2.618-1.4097 4.0277-4.0277 4.0277z"/>
   <path d="m232.41 142.88c0-9.4651-5.1353-14.5-14.5-14.5h-11.278c-9.4651 0-14.6 5.0346-14.6 14.5v51.555c0 9.4651 5.1353 14.5 14.6 14.5h11.278c9.3644 0 14.5-5.0346 14.5-14.5v-10.875c0-1.0069-0.60416-1.6111-1.6111-1.6111h-10.069c-1.1076 0-1.6111 0.60416-1.6111 1.6111v8.0554c0 2.7187-1.4097 4.0277-4.0277 4.0277h-5.236c-2.618 0-4.0277-1.309-4.0277-4.0277v-45.916c0-2.618 1.309-4.0277 4.0277-4.0277h5.236c2.618 0 4.0277 1.4097 4.0277 4.0277v8.0554c0 1.0069 0.50346 1.6111 1.6111 1.6111h10.069c1.0069 0 1.6111-0.60416 1.6111-1.6111z"/>
   <path d="m283.96 142.88c0-9.4651-5.0346-14.5-14.5-14.5h-25.274c-1.0069 0-1.6111 0.60416-1.6111 1.6111v77.332c0 1.0069 0.60416 1.6111 1.6111 1.6111h10.472c1.0069 0 1.6111-0.60416 1.6111-1.6111v-25.375h6.9478l6.7464 25.576c0.20138 0.90624 0.70485 1.4097 1.7118 1.4097h10.472c1.1076 0 1.7118-0.60416 1.4097-1.8125l-6.9478-26.382c4.8332-2.1146 7.3506-6.545 7.3506-13.291zm-27.691 25.777v-26.986h9.9686c2.618 0 4.0277 1.4097 4.0277 4.0277v18.93c0 2.618-1.4097 4.0277-4.0277 4.0277z"/>
  </g>
 </g>
</svg>
